HIERARCHY
ROOT SpineBase
{
  OFFSET 0.000000 0.000000 0.000000
  CHANNELS 6 Xposition Yposition Zposition Zrotation Xrotation Yrotation
  JOINT SpineMid
  {
    OFFSET 0.000000 28.940028 0.000000
    CHANNELS 3 Zrotation Xrotation Yrotation
    JOINT SpineShoulder
    {
      OFFSET -0.136595 21.412763 -0.671908
      CHANNELS 3 Zrotation Xrotation Yrotation
      JOINT Neck
      {
        OFFSET -0.087923 7.061664 -0.504489
        CHANNELS 3 Zrotation Xrotation Yrotation
        JOINT Head
        {
          OFFSET 0.760516 10.716149 2.666012
          CHANNELS 3 Zrotation Xrotation Yrotation
          End Site
          {
            OFFSET 0 0 0
          }
        }
      }
      JOINT ShoulderLeft
      {
        OFFSET -9.589307 -5.376572 -1.731605
        CHANNELS 3 Zrotation Xrotation Yrotation
        JOINT ElbowLeft
        {
          OFFSET -6.308068 -24.706346 9.630719
          CHANNELS 3 Zrotation Xrotation Yrotation
          JOINT WristLeft
          {
            OFFSET -3.894161 -25.919482 7.887254
            CHANNELS 3 Zrotation Xrotation Yrotation
            JOINT HandLeft
            {
              OFFSET -3.817847 -12.774802 8.162868
              CHANNELS 3 Zrotation Xrotation Yrotation
              JOINT HandTipLeft
              {
                OFFSET -2.307759 -8.279920 -0.616615
                CHANNELS 3 Zrotation Xrotation Yrotation
                End Site
                {
                  OFFSET 0 0 0
                }
              }
              JOINT ThumbLeft
              {
                OFFSET 4.675094 -5.015606 -7.991964
                CHANNELS 3 Zrotation Xrotation Yrotation
                End Site
                {
                  OFFSET 0 0 0
                }
              }
            }
          }
        }
      }
      JOINT ShoulderRight
      {
        OFFSET 8.131527 -5.690616 -13.645921
        CHANNELS 3 Zrotation Xrotation Yrotation
        JOINT ElbowRight
        {
          OFFSET 8.833734 -23.472730 -1.269968
          CHANNELS 3 Zrotation Xrotation Yrotation
          JOINT WristRight
          {
            OFFSET 8.447160 -26.031462 5.826211
            CHANNELS 3 Zrotation Xrotation Yrotation
            JOINT HandRight
            {
              OFFSET 1.171617 -6.474511 2.028864
              CHANNELS 3 Zrotation Xrotation Yrotation
              JOINT HandTipRight
              {
                OFFSET 0.164973 -7.154126 1.380665
                CHANNELS 3 Zrotation Xrotation Yrotation
                End Site
                {
                  OFFSET 0 0 0
                }
              }
              JOINT ThumbRight
              {
                OFFSET -3.043036 -1.607688 2.259991
                CHANNELS 3 Zrotation Xrotation Yrotation
                End Site
                {
                  OFFSET 0 0 0
                }
              }
            }
          }
        }
      }
    }
  }
  JOINT HipLeft
  {
    OFFSET -5.081220 -0.388904 -0.167934
    CHANNELS 3 Zrotation Xrotation Yrotation
    JOINT KneeLeft
    {
      OFFSET -3.632741 -52.606220 6.370493
      CHANNELS 3 Zrotation Xrotation Yrotation
      JOINT AnkleLeft
      {
        OFFSET -0.212822 -33.934327 3.867589
        CHANNELS 3 Zrotation Xrotation Yrotation
        JOINT FootLeft
        {
          OFFSET -3.608189 11.005545 -7.110666
          CHANNELS 3 Zrotation Xrotation Yrotation
          End Site
          {
            OFFSET 0 0 0
          }
        }
      }
    }
  }
  JOINT HipRight
  {
    OFFSET 4.379573 1.911120 -6.223688
    CHANNELS 3 Zrotation Xrotation Yrotation
    JOINT KneeRight
    {
      OFFSET 8.259656 -49.418524 -4.837716
      CHANNELS 3 Zrotation Xrotation Yrotation
      JOINT AnkleRight
      {
        OFFSET 5.858684 -33.796865 -1.702762
        CHANNELS 3 Zrotation Xrotation Yrotation
        JOINT FootRight
        {
          OFFSET -6.072320 -4.216167 -11.392009
          CHANNELS 3 Zrotation Xrotation Yrotation
          End Site
          {
            OFFSET 0 0 0
          }
        }
      }
    }
  }
}
MOTION
Frames: 8
Frame Time: 0.033333
30.787783 89.230138 277.273288 -0.000000 0.000000 32.622879 -0.000000 0.000000 -32.622879 -0.000000 0.000000 0.000000 -0.000000 0.000000 0.000000 0.000000 0.000000 0.000000 -0.000000 0.000000 0.000000 -0.000000 0.000000 0.000000 -0.000000 0.000000 0.000000 -0.000000 0.000000 0.000000 0.000000 0.000000 0.000000 0.000000 0.000000 0.000000 -0.000000 0.000000 0.000000 -0.000000 0.000000 0.000000 -0.000000 0.000000 0.000000 -0.000000 0.000000 0.000000 0.000000 0.000000 0.000000 0.000000 0.000000 0.000000 -0.000000 0.000000 -32.622879 -0.000000 0.000000 0.000000 -0.000000 0.000000 0.000000 0.000000 0.000000 0.000000 -0.000000 0.000000 -32.622879 -0.000000 0.000000 0.000000 -0.000000 0.000000 0.000000 0.000000 0.000000 0.000000
30.759648 89.219051 277.238370 -0.012774 0.022947 32.325365 -0.001476 -0.026222 -32.325363 -0.000000 0.000000 0.000000 -0.000000 0.000000 0.000000 0.000000 0.000000 0.000000 -0.000000 0.000000 0.000000 -0.000000 0.000000 0.000000 -0.000000 0.000000 0.000000 -0.000000 0.000000 0.000000 0.000000 0.000000 0.000000 0.000000 0.000000 0.000000 -0.000000 0.000000 0.000000 -0.000000 0.000000 0.000000 1.065158 -1.006176 0.160351 -1.062503 1.008979 -0.141642 0.000000 0.000000 0.000000 0.000000 0.000000 0.000000 -0.001476 -0.026222 -32.325363 -0.000000 0.000000 0.000000 -6.270173 4.846572 -2.303738 0.000000 0.000000 0.000000 -0.001476 -0.026222 -32.325363 -0.000000 0.000000 0.000000 -0.000000 0.000000 0.000000 0.000000 0.000000 0.000000
30.734910 89.209764 277.204080 -0.019294 0.040797 32.065845 -0.005308 -0.044816 -32.065840 -0.000000 0.000000 0.000000 -0.000000 0.000000 0.000000 0.000000 0.000000 0.000000 -0.000000 0.000000 0.000000 -0.000000 0.000000 0.000000 0.610957 0.710328 0.175291 -0.613174 -0.708415 -0.182869 0.000000 0.000000 0.000000 0.000000 0.000000 0.000000 -0.000000 0.000000 0.000000 -0.000000 0.000000 0.000000 1.780540 -1.694277 0.275659 -1.773152 1.702008 -0.222989 0.000000 0.000000 0.000000 0.000000 0.000000 0.000000 -0.005308 -0.044816 -32.065840 -0.000000 0.000000 0.000000 -12.098832 9.916852 -3.884594 0.000000 0.000000 0.000000 -0.005308 -0.044816 -32.065840 -0.000000 0.000000 0.000000 -0.000000 0.000000 0.000000 0.000000 0.000000 0.000000
30.713570 89.202277 277.170419 -0.019569 0.053556 31.844340 -0.011633 -0.055819 -31.844337 -0.000000 0.000000 0.000000 -0.000000 0.000000 0.000000 0.000000 0.000000 0.000000 -0.000000 0.000000 0.000000 -0.000000 0.000000 0.000000 0.697841 1.100288 0.111258 0.215090 -1.072640 -0.183461 0.000000 0.000000 0.000000 0.000000 0.000000 0.000000 0.779015 0.263014 0.054899 -0.779275 -0.262244 -0.058471 2.263450 -2.175297 0.355278 -2.251563 2.187599 -0.269306 0.000000 0.000000 0.000000 0.000000 0.000000 0.000000 -0.011633 -0.055819 -31.844337 -0.000000 0.000000 0.000000 -17.119712 14.739524 -4.672783 0.000000 0.000000 0.000000 -0.011633 -0.055819 -31.844337 -0.000000 0.000000 0.000000 -0.000000 0.000000 0.000000 0.000000 0.000000 0.000000
30.695627 89.196589 277.137386 -0.013606 0.061231 31.660860 -0.020558 -0.059260 -31.660863 -0.000000 0.000000 0.000000 -0.000000 0.000000 0.000000 0.000000 0.000000 0.000000 0.570283 0.696738 0.041090 -0.570825 -0.696294 -0.048026 0.641374 1.515281 -0.052058 0.381526 -1.260549 -0.087466 0.000000 0.000000 0.000000 0.000000 0.000000 0.000000 0.897366 0.182793 0.018752 -0.897430 -0.182477 -0.021613 2.577213 -2.509702 0.405539 -2.561881 2.525352 -0.292599 0.000000 0.000000 0.000000 0.000000 0.000000 0.000000 -0.020558 -0.059260 -31.660863 -0.000000 0.000000 0.000000 -21.074740 18.935874 -4.751392 0.000000 0.000000 0.000000 -0.020558 -0.059260 -31.660863 -0.000000 0.000000 0.000000 -0.000000 0.000000 0.000000 0.000000 0.000000 0.000000
30.681081 89.192702 277.104982 -0.001415 0.063829 31.515400 -0.032159 -0.055154 -31.515415 -0.000000 0.000000 0.000000 -0.000000 0.000000 0.000000 0.000000 0.000000 0.000000 0.576931 0.866722 -0.000771 -0.576985 -0.866686 -0.007957 0.441970 1.957848 -0.314105 0.594867 -1.363993 0.087183 0.000000 0.000000 0.000000 0.000000 0.000000 0.000000 0.940286 0.019397 -0.043599 -1.425652 -0.716644 -0.294512 3.252495 -2.017274 0.728040 -2.738879 2.748918 -0.298698 0.000000 0.000000 0.000000 0.000000 0.000000 0.000000 -0.032159 -0.055154 -31.515415 -0.000000 0.000000 0.000000 -23.807932 22.292246 -4.286024 0.000000 0.000000 0.000000 -0.032159 -0.055154 -31.515415 -0.000000 0.000000 0.000000 -0.000000 0.000000 0.000000 0.000000 0.000000 0.000000
30.669628 89.191896 277.066866 0.023888 0.062011 31.398957 -0.052697 -0.040485 -31.398988 -0.000000 0.000000 0.000000 -0.000000 0.000000 0.000000 0.000000 0.000000 0.000000 0.729993 1.034423 0.013924 -0.730363 -1.034162 -0.027106 0.322420 2.379304 -0.519172 0.783407 -1.280254 0.154306 0.000000 0.000000 0.000000 0.000000 0.000000 0.000000 0.923216 -0.260434 -0.145441 -1.274137 -0.928253 -0.315573 3.041690 -1.336251 0.837445 -2.285507 4.608642 -0.220346 0.000000 0.000000 0.000000 0.000000 0.000000 0.000000 -0.052697 -0.040485 -31.398988 -0.000000 0.000000 0.000000 -27.090280 25.987092 -3.622554 0.000000 0.000000 0.000000 -0.052697 -0.040485 -31.398988 -0.000000 0.000000 0.000000 -0.000000 0.000000 0.000000 0.000000 0.000000 0.000000
30.655877 89.190719 277.033399 0.046263 0.046925 31.313934 -0.063912 -0.016046 -31.313962 -0.000000 0.000000 0.000000 -0.000000 0.000000 0.000000 0.000000 0.000000 0.000000 0.728859 1.227588 -0.037348 -0.728226 -1.227963 0.021736 -0.181670 2.789590 -0.959974 0.849194 -1.188736 0.500768 0.000000 0.000000 0.000000 0.000000 0.000000 0.000000 0.699919 -0.657097 -0.280592 -0.907647 -0.950133 -0.278157 3.230658 -1.223603 0.973404 -2.596100 4.507495 -0.258729 0.000000 0.000000 0.000000 0.000000 0.000000 0.000000 -0.063912 -0.016046 -31.313962 -0.000000 0.000000 0.000000 -29.864270 29.890489 -2.106399 0.000000 0.000000 0.000000 -0.063912 -0.016046 -31.313962 -0.000000 0.000000 0.000000 -0.000000 0.000000 0.000000 0.000000 0.000000 0.000000
